<svg width="24" height="24" viewBox="0 0 24 24" fill="none" xmlns="http://www.w3.org/2000/svg">
<g clip-path="url(#clip0_1163_11588)">
<path d="M12.4032 11.0742C12.0633 11.0742 11.7815 11.1914 11.5415 11.4325C11.3311 11.6441 11.2155 11.8866 11.1902 12.1707L12.9464 11.1964C12.7833 11.1145 12.6037 11.0742 12.4032 11.0742Z" fill="#FF5B04"/>
<path d="M16.9307 11.0742C16.5908 11.0742 16.309 11.1914 16.069 11.4325C15.8676 11.6351 15.753 11.8659 15.7214 12.1344L17.4649 11.1919C17.3042 11.113 17.1276 11.0742 16.9307 11.0742Z" fill="#FF5B04"/>
<path d="M22.4063 13.9426C23.1534 13.4604 24.0001 12.9139 24.0001 12C24.0001 11.086 23.1534 10.5396 22.4063 10.0573C22.1496 9.89163 21.6807 9.58897 21.5723 9.43017C21.5805 9.23019 21.8566 8.68977 21.9919 8.42483C22.3888 7.64802 22.8385 6.76763 22.3932 5.99784C21.943 5.21982 20.9473 5.17026 20.0688 5.12646C19.755 5.11085 19.181 5.08224 19.0065 4.9936C18.9179 4.81913 18.8894 4.24513 18.8737 3.93125C18.8299 3.05275 18.7803 2.0571 18.0023 1.60695C17.7916 1.48509 17.552 1.42327 17.2901 1.42327C16.7202 1.42327 16.1382 1.72064 15.5753 2.00822C15.2398 2.17959 14.7841 2.41237 14.5685 2.42683C14.4093 2.3166 14.108 1.84979 13.9429 1.59386C13.4606 0.846753 12.9141 0 12.0002 0C11.0862 0 10.5397 0.846752 10.0575 1.5938C9.89219 1.85005 9.59042 2.31754 9.43141 2.42714C9.22111 2.41494 8.76237 2.18054 8.42502 2.00822C7.86223 1.72064 7.28016 1.42327 6.71024 1.42327C6.44839 1.42327 6.20875 1.48509 5.99814 1.60695C5.22012 2.05705 5.17051 3.05275 5.12671 3.93125C5.11115 4.24518 5.08249 4.81919 4.99389 4.99365C4.81943 5.08224 4.24548 5.11085 3.93155 5.12651C3.05305 5.17026 2.05745 5.21988 1.6073 5.99784C1.16187 6.76763 1.6117 7.64807 2.00852 8.42488C2.14379 8.68977 2.42 9.23024 2.42807 9.43022C2.31983 9.58902 1.85082 9.89169 1.5941 10.0574C0.846997 10.5396 0.000244141 11.0861 0.000244141 12C0.000244141 12.914 0.846997 13.4604 1.5941 13.9427C1.85082 14.1084 2.31983 14.411 2.42807 14.5698C2.42 14.7698 2.14379 15.3103 2.00852 15.5752C1.6116 16.3519 1.16187 17.2323 1.6072 18.0021C2.05735 18.7801 3.0531 18.8296 3.93155 18.8734C4.24538 18.8891 4.81943 18.9177 4.99389 19.0063C5.08249 19.1808 5.11104 19.7548 5.12671 20.0687C5.17051 20.9472 5.22002 21.9428 5.99814 22.393C6.20875 22.5149 6.44839 22.5767 6.71024 22.5767C7.28021 22.5766 7.86223 22.2793 8.42502 21.9917C8.76053 21.8204 9.21613 21.5876 9.43183 21.5731C9.59104 21.6833 9.8924 22.1502 10.0575 22.4061C10.5397 23.1532 11.0862 23.9999 12.0002 23.9999C12.914 23.9999 13.4606 23.1532 13.9428 22.4061C14.1081 22.1499 14.4099 21.6824 14.5689 21.5728C14.7792 21.585 15.238 21.8194 15.5754 21.9917C16.1382 22.2793 16.7203 22.5766 17.2901 22.5766C17.552 22.5766 17.7915 22.5148 18.0023 22.3929C18.7803 21.9428 18.8298 20.9471 18.8736 20.0686C18.8893 19.7548 18.9178 19.1808 19.0064 19.0063C19.1808 18.9178 19.7548 18.8892 20.0687 18.8734C20.9473 18.8297 21.9429 18.7801 22.3931 18.0021C22.8384 17.2323 22.3887 16.3519 21.9918 15.5751C21.8565 15.3102 21.5804 14.7697 21.5722 14.5698C21.6806 14.4109 22.1495 14.1083 22.4063 13.9426ZM7.48333 8.36562C7.48333 8.63434 7.26544 8.85218 6.99677 8.85218H6.83121C6.57465 8.85218 6.36797 8.94649 6.21682 9.13243C6.05681 9.32942 5.97571 9.52007 5.97571 9.69904V10.0275H6.73335C7.00206 10.0275 7.21991 10.2454 7.21991 10.5141V10.6293C7.21991 10.898 7.00206 11.1158 6.73335 11.1158H5.97571V14.0678C5.97571 14.3366 5.75776 14.5544 5.4891 14.5544H5.35676C5.08804 14.5544 4.8702 14.3366 4.8702 14.0678V9.82007C4.8702 9.21369 5.05189 8.71811 5.41035 8.34718C5.77002 7.97463 6.24815 7.78565 6.83121 7.78565H6.99677C7.26544 7.78565 7.48333 8.00349 7.48333 8.27221V8.36562ZM9.81062 11.0316C9.43885 11.0497 9.16484 11.1791 8.97309 11.4272C8.75818 11.7051 8.64925 12.0349 8.64925 12.4075V14.0677C8.64925 14.3364 8.43136 14.5543 8.16269 14.5543H8.03035C7.76174 14.5543 7.544 14.3367 7.54379 14.0681L7.54065 10.5145C7.54054 10.3854 7.59173 10.2615 7.68305 10.1702C7.77426 10.0788 7.89806 10.0275 8.02721 10.0275H8.16269C8.38389 10.0275 8.57061 10.1751 8.62976 10.3772C8.97618 10.1193 9.35261 9.97457 9.75262 9.94633C9.88748 9.93637 10.0199 9.98368 10.1187 10.0757C10.2174 10.1677 10.2735 10.2967 10.2735 10.4316V10.5455C10.2735 10.8051 10.0699 11.0189 9.81062 11.0316ZM14.5676 13.1687C14.4554 13.4483 14.2805 13.7072 14.0475 13.9381C13.5961 14.3895 13.0424 14.6192 12.4032 14.6192C11.7642 14.6192 11.2106 14.3904 10.7579 13.939C10.3049 13.4875 10.0751 12.933 10.0751 12.291C10.0751 11.6518 10.3048 11.0982 10.7576 10.6453C11.2106 10.1924 11.7642 9.96283 12.4032 9.96283C12.9697 9.96283 13.4435 10.1173 13.8517 10.4352C14.1144 10.6398 14.2552 10.8309 14.3309 10.9335C14.4139 11.0461 14.4444 11.1891 14.4146 11.3258C14.3849 11.4625 14.2977 11.5798 14.1753 11.6477L11.5137 13.1245C11.5227 13.1341 11.532 13.1436 11.5414 13.153C11.7812 13.3928 12.0631 13.5094 12.4032 13.5094C12.7434 13.5094 13.0261 13.3922 13.2673 13.1509C13.381 13.0372 13.4679 12.9111 13.5255 12.776C13.612 12.5733 13.8238 12.4541 14.0422 12.4855L14.1852 12.5061C14.3328 12.5273 14.4628 12.6152 14.5374 12.7445C14.6121 12.8737 14.6233 13.03 14.5676 13.1687ZM19.0951 13.1687C18.9829 13.4483 18.808 13.7072 18.5749 13.9381C18.1236 14.3895 17.5699 14.6192 16.9307 14.6192C16.2917 14.6192 15.738 14.3904 15.2853 13.939C14.8323 13.4875 14.6026 12.933 14.6026 12.291C14.6026 11.6518 14.8322 11.0982 15.2851 10.6453C15.738 10.1924 16.2917 9.96283 16.9307 9.96283C17.4625 9.96283 17.9169 10.1085 18.3608 10.4215C18.6296 10.611 18.7568 10.7905 18.8329 10.8979L18.8584 10.9335C18.942 11.0469 18.9723 11.1908 18.9416 11.3282C18.9109 11.4657 18.8222 11.583 18.6983 11.6501L16.1131 13.0492C16.0797 13.0672 16.0451 13.0809 16.0101 13.0906C16.0287 13.1117 16.0483 13.1326 16.0688 13.153C16.3086 13.3928 16.5905 13.5094 16.9306 13.5094C17.2708 13.5094 17.5535 13.3922 17.7947 13.1509C17.9085 13.0372 17.9953 12.9111 18.053 12.776C18.1395 12.5733 18.3508 12.4541 18.5696 12.4855L18.7126 12.5061C18.8603 12.5273 18.9902 12.6152 19.0648 12.7445C19.1396 12.8737 19.1508 13.03 19.0951 13.1687Z" fill="#FF5B04"/>
</g>
<defs>
<clipPath id="clip0_1163_11588">
<rect width="24" height="24" fill="white"/>
</clipPath>
</defs>
</svg>
