<svg width="1122" height="209" viewBox="0 0 1122 209" fill="none" xmlns="http://www.w3.org/2000/svg">
<g opacity="0.15">
<path d="M65.3784 222.487C48.2347 222.487 34.9411 217.692 25.4976 208.104C16.054 198.515 11.3323 184.349 11.3323 165.608V64.0532H46.4187V169.094C46.4187 176.359 48.0168 182.025 51.2131 186.093C54.5547 190.016 59.2764 191.977 65.3784 191.977C71.4804 191.977 76.1295 190.016 79.3258 186.093C82.6674 182.025 84.3382 176.359 84.3382 169.094V64.0532H119.425V165.608C119.425 184.349 114.703 198.515 105.259 208.104C95.8157 217.692 82.5221 222.487 65.3784 222.487Z" fill="url(#paint0_linear_1441_1826)"/>
<path d="M146.691 219V187.836H178.726V95.4348H146.691V64.2711H246.066V95.4348H214.031V187.836H246.066V219H146.691Z" fill="url(#paint1_linear_1441_1826)"/>
<path d="M346.618 219V64.2711H397.614C408.219 64.2711 417.59 66.4504 425.726 70.8089C434.008 75.0222 440.473 80.9063 445.122 88.4611C449.771 96.0159 452.096 104.806 452.096 114.83C452.096 124.855 449.771 133.645 445.122 141.2C440.473 148.609 434.008 154.493 425.726 158.852C417.59 163.065 408.219 165.172 397.614 165.172H381.705V219H346.618ZM381.705 134.008H393.909C401.318 134.008 406.839 132.41 410.471 129.214C414.249 125.872 416.137 121.078 416.137 114.83C416.137 108.438 414.249 103.643 410.471 100.447C406.839 97.1056 401.318 95.4348 393.909 95.4348H381.705V134.008Z" fill="url(#paint2_linear_1441_1826)"/>
<path d="M477.183 219V187.836H509.218V95.4348H477.183V64.2711H576.558V95.4348H544.522V187.836H576.558V219H477.183Z" fill="url(#paint3_linear_1441_1826)"/>
<path d="M605.349 219V64.2711H656.127C672.98 64.2711 686.128 68.4844 695.572 76.9109C705.015 85.1922 709.737 96.5244 709.737 110.908C709.737 118.608 708.139 125.291 704.943 130.957C701.746 136.623 697.315 141.127 691.649 144.469C686.128 147.665 679.881 149.554 672.907 150.135L672.035 147.084C683.949 147.229 692.811 149.626 698.623 154.275C704.579 158.779 707.994 166.116 708.865 176.286L712.352 219H676.83L674.433 186.529C673.997 180.281 672.98 175.632 671.382 172.581C669.929 169.53 667.604 167.496 664.408 166.479C661.357 165.462 657.289 164.954 652.204 164.954H640.436V219H605.349ZM640.436 133.572H654.819C660.921 133.572 665.57 131.901 668.767 128.56C671.963 125.218 673.561 120.497 673.561 114.395C673.561 108.293 671.963 103.643 668.767 100.447C665.57 97.1056 660.921 95.4348 654.819 95.4348H640.436V133.572Z" fill="url(#paint4_linear_1441_1826)"/>
<path d="M726.979 219L767.949 64.2711H809.791L850.762 219H815.675L788.87 108.51L762.065 219H726.979ZM757.271 189.798L765.552 159.724H812.188L820.47 189.798H757.271Z" fill="url(#paint5_linear_1441_1826)"/>
<path d="M908.538 54.2464L941.663 35.0687C941.227 55.1181 929.459 77.3468 891.104 97.3961C936.215 81.0515 974.57 74.2958 996.799 70.3731L958.879 119.189L958.008 118.753C961.059 114.612 973.045 86.9356 958.008 86.9356C930.549 86.9356 889.36 125.073 889.36 184.567C889.36 190.669 888.924 218.346 904.179 218.346C920.742 218.346 960.841 185.221 971.955 152.968L972.827 153.404L955.828 213.116C947.983 220.09 933.382 224.012 919.216 224.012C886.963 224.012 861.247 203.309 861.247 176.286C861.247 135.969 918.998 101.537 936.215 90.6404C906.577 105.677 891.975 117.881 869.965 122.24C857.543 124.637 853.184 109.818 859.068 97.6141L869.965 75.3854L870.618 75.6033C861.465 91.73 881.297 90.8583 888.488 90.8583C895.898 90.8583 902.872 88.2432 905.705 84.7563C911.589 76.9109 910.499 64.7069 908.538 54.2464Z" fill="url(#paint6_linear_1441_1826)"/>
<path d="M1008.36 219V64.2711H1105.99V95.4348H1043.45V126.163H1103.38V156.673H1043.45V187.836H1107.74V219H1008.36Z" fill="url(#paint7_linear_1441_1826)"/>
</g>
<defs>
<linearGradient id="paint0_linear_1441_1826" x1="65.5" y1="0" x2="65.5" y2="283" gradientUnits="userSpaceOnUse">
<stop offset="0.149038" stop-color="white"/>
<stop offset="1" stop-color="white" stop-opacity="0"/>
</linearGradient>
<linearGradient id="paint1_linear_1441_1826" x1="196.5" y1="0" x2="196.5" y2="283" gradientUnits="userSpaceOnUse">
<stop offset="0.149038" stop-color="white"/>
<stop offset="1" stop-color="white" stop-opacity="0"/>
</linearGradient>
<linearGradient id="paint2_linear_1441_1826" x1="395.992" y1="0" x2="395.992" y2="283" gradientUnits="userSpaceOnUse">
<stop offset="0.149038" stop-color="white"/>
<stop offset="1" stop-color="white" stop-opacity="0"/>
</linearGradient>
<linearGradient id="paint3_linear_1441_1826" x1="526.992" y1="0" x2="526.992" y2="283" gradientUnits="userSpaceOnUse">
<stop offset="0.149038" stop-color="white"/>
<stop offset="1" stop-color="white" stop-opacity="0"/>
</linearGradient>
<linearGradient id="paint4_linear_1441_1826" x1="657.992" y1="0" x2="657.992" y2="283" gradientUnits="userSpaceOnUse">
<stop offset="0.149038" stop-color="white"/>
<stop offset="1" stop-color="white" stop-opacity="0"/>
</linearGradient>
<linearGradient id="paint5_linear_1441_1826" x1="788.992" y1="0" x2="788.992" y2="283" gradientUnits="userSpaceOnUse">
<stop offset="0.149038" stop-color="white"/>
<stop offset="1" stop-color="white" stop-opacity="0"/>
</linearGradient>
<linearGradient id="paint6_linear_1441_1826" x1="922.492" y1="45" x2="922.492" y2="285" gradientUnits="userSpaceOnUse">
<stop offset="0.149038" stop-color="white"/>
<stop offset="1" stop-color="white" stop-opacity="0"/>
</linearGradient>
<linearGradient id="paint7_linear_1441_1826" x1="1055.99" y1="0" x2="1055.99" y2="283" gradientUnits="userSpaceOnUse">
<stop offset="0.149038" stop-color="white"/>
<stop offset="1" stop-color="white" stop-opacity="0"/>
</linearGradient>
</defs>
</svg>
