<svg width="95" height="137" viewBox="0 0 95 137" fill="none" xmlns="http://www.w3.org/2000/svg">
<path d="M89.0778 37.9883L24.4272 0.662695C22.9703 -0.178944 21.4956 -0.221379 20.3853 0.549533L2.19454 11.0523C2.19454 11.0523 2.17333 11.0629 2.16625 11.0665C1.42717 11.4519 0.889648 12.0425 0.539555 12.8099C0.185925 13.5772 0.0161869 14.5214 0.00204168 15.6142C0.00911427 25.1445 -0.00503091 77.8706 0.00204168 88.5715C0.00204168 92.3553 2.24759 96.6201 5.11199 98.2751L69.7626 135.604C71.0568 136.343 72.3653 136.538 73.603 135.845C73.6277 135.827 73.6525 135.813 73.6666 135.806L92.0801 125.172C93.4239 124.468 94.1913 122.821 94.1913 120.649V47.6954C94.1913 43.9116 91.9457 39.6468 89.0778 37.9883ZM74.1688 131.392C74.1688 132.934 73.7161 134.105 72.9169 134.603C72.1071 135.109 71.1311 134.763 70.4698 134.377L5.81925 97.0515C3.38981 95.6476 1.41656 91.8425 1.41656 88.5715V31.7715L74.1688 73.7756V131.392ZM74.1688 72.1418L1.41656 30.1377V15.6142C1.41656 14.1324 1.83738 12.9867 2.57293 12.4633L2.85583 12.3006C3.48529 12.0248 4.19609 12.1769 4.79372 12.4633C5.01651 12.5376 69.5009 49.8278 69.7626 49.9587C72.192 51.359 74.1688 55.1641 74.1688 58.4387V72.1418ZM92.7768 120.649C92.7768 122.255 92.2711 123.475 91.3976 123.934L75.3888 133.178C75.5232 132.591 75.5798 132.001 75.5833 131.392V73.7756L92.7768 63.8245V120.649ZM92.7768 62.1907L75.5833 72.1418V58.4387C75.5833 54.6478 73.3378 50.3866 70.4698 48.7316L5.81925 11.406C5.56817 11.2574 5.31709 11.1443 5.05187 11.0347L21.1243 1.75541C21.1491 1.74126 21.1738 1.72358 21.1986 1.7059C21.8493 1.26033 22.744 1.32398 23.72 1.88625L88.3705 39.2154C90.8 40.6193 92.7768 44.4244 92.7768 47.6954V62.1907Z" fill="black"/>
<path d="M74.169 58.4396V72.1428L1.41675 30.1386V15.6151C1.41675 14.1334 1.83756 12.9876 2.57311 12.4642L2.85602 12.3016C3.48548 12.0257 4.19628 12.1778 4.79391 12.4642C5.0167 12.5385 69.5011 49.8287 69.7627 49.9596C72.1922 51.3599 74.169 55.165 74.169 58.4396Z" fill="white"/>
<path d="M92.7769 47.6969V62.1922L75.5834 72.1433V58.4402C75.5834 54.6493 73.3379 50.388 70.4699 48.733L5.81938 11.4074C5.5683 11.2589 5.31722 11.1457 5.052 11.0361L21.1245 1.75687C21.1492 1.74273 21.174 1.72505 21.1987 1.70736C21.8494 1.26179 22.7441 1.32544 23.7201 1.88772L88.3707 39.2169C90.8001 40.6208 92.7769 44.4258 92.7769 47.6969Z" fill="#E8E8E8"/>
<path d="M92.7771 63.8281V120.653C92.7771 122.258 92.2714 123.478 91.398 123.938L75.3892 133.182C75.5235 132.595 75.5801 132.004 75.5837 131.396V73.7793L92.7771 63.8281Z" fill="#E8E8E8"/>
<path d="M74.169 73.7776V131.394C74.169 132.936 73.7163 134.107 72.9171 134.605C72.1073 135.111 71.1313 134.765 70.47 134.379L5.81944 97.0535C3.39 95.6496 1.41675 91.8445 1.41675 88.5734V31.7734L74.169 73.7776Z" fill="white"/>
<path d="M36.7939 0.945347C34.0674 -0.741466 29.9264 -0.0589605 26.4113 2.2467C19.1513 6.81206 13.3128 17.6119 14.0696 25.9328C12.5349 29.4161 15.1093 34.183 18.1929 36.0254C19.4483 36.7291 20.7037 36.9802 21.8954 36.3225C24.1374 35.0105 23.6636 31.3469 22.5355 29.1544C22.5355 29.1544 22.5343 29.152 22.532 29.1473C22.2774 28.4436 21.9096 27.7434 21.4499 27.1245C21.3933 27.0432 21.3367 26.9689 21.2766 26.8947C17.8039 21.2189 23.264 11.3633 28.5649 8.39279C30.8317 7.14801 32.7802 6.82621 34.4564 8.07806C34.4847 8.09927 34.5165 8.12049 34.5483 8.14171L39.7962 11.1688C40.0119 11.2925 40.2736 11.2961 40.4928 11.1759C40.7085 11.0556 40.8464 10.8328 40.8571 10.5853C41.1046 6.38771 39.6123 2.46242 36.7939 0.945347ZM21.1882 35.0954C19.1477 35.9971 16.7537 33.1822 15.8554 31.2974C16.6759 32.4537 17.7544 33.3095 19.0629 33.8081C19.0699 33.8117 19.0805 33.8152 19.0876 33.8188L19.5579 33.9743C19.6004 33.992 19.6464 34.0026 19.7065 34.0203C19.7984 34.0451 19.8904 34.0698 19.9788 34.084C20.7002 34.2396 21.4958 34.0734 22.0298 33.5854C21.9273 34.3103 21.6373 34.8372 21.1882 35.0954ZM35.3015 6.9429C33.155 5.3445 30.6159 5.63447 27.8576 7.16569C21.9096 10.5711 16.0287 21.3427 20.152 27.7505C20.1591 27.7611 20.1697 27.7752 20.1768 27.7858C20.6542 28.3905 21.0432 29.1155 21.2695 29.8086C21.2695 29.8086 21.2707 29.8109 21.273 29.8157C21.6797 30.9155 21.7398 33.1327 20.1025 32.6624C20.0778 32.6588 20.046 32.6482 20.0212 32.6376L19.5544 32.482C17.3301 31.6298 15.9085 29.409 15.5266 26.2758C15.0067 21.1623 16.7112 15.9605 19.908 10.9106C22.1642 7.48042 24.7457 4.83881 27.7975 3.06359C34.0355 -0.638914 39.3258 2.10172 39.4531 9.33698L35.3015 6.9429Z" fill="black"/>
<path d="M39.4532 9.3405L35.3016 6.94643C33.1551 5.34802 30.616 5.638 27.8577 7.16921C21.9097 10.5747 16.0288 21.3462 20.1521 27.754C20.1592 27.7646 20.1698 27.7787 20.1769 27.7894C20.6543 28.3941 21.0433 29.119 21.2696 29.8121C21.2696 29.8121 21.2708 29.8145 21.2731 29.8192C21.6798 30.919 21.7399 33.1362 20.1026 32.6659C20.0779 32.6624 20.046 32.6518 20.0213 32.6412L19.5545 32.4856C17.3302 31.6333 15.9086 29.4125 15.5266 26.2794C15.0068 21.1659 16.7113 15.964 19.9081 10.9142C22.1643 7.48394 24.7458 4.84233 27.7976 3.06711C34.0356 -0.635393 39.3259 2.10524 39.4532 9.3405Z" fill="white"/>
<path d="M22.0296 33.5888C21.927 34.3137 21.6371 34.8406 21.188 35.0988C19.1475 36.0005 16.7534 33.1856 15.8552 31.3008C16.6756 32.4572 17.7542 33.3129 19.0626 33.8116C19.0697 33.8151 19.0803 33.8186 19.0874 33.8222L19.5577 33.9778C19.6002 33.9954 19.6461 34.006 19.7063 34.0237C19.7982 34.0485 19.8901 34.0732 19.9785 34.0874C20.6999 34.243 21.4956 34.0768 22.0296 33.5888Z" fill="#E8E8E8"/>
<path d="M74.8128 22.8979C72.0899 21.2146 67.9453 21.89 64.4302 24.1992C56.8555 29.0333 50.8438 40.3071 52.2336 49.0523C51.5334 52.4295 53.7895 56.5245 56.6822 58.2467C57.9376 58.9504 59.1894 59.2015 60.3847 58.5437C63.5356 56.4608 61.4916 51.0432 59.193 48.6951C59.193 48.6951 59.193 48.6951 59.193 48.6916C55.9608 42.9168 61.29 33.3512 66.5874 30.3453C68.8541 29.1005 70.7991 28.7752 72.4788 30.0306C72.5071 30.0518 72.539 30.073 72.5708 30.0942L77.8187 33.1213C78.0308 33.2451 78.2961 33.2486 78.5118 33.1284C78.731 33.0081 78.8689 32.7854 78.8795 32.5378C79.1271 28.3438 77.6348 24.4149 74.8163 22.8979H74.8128ZM60.558 54.8978C60.6358 55.9163 60.3175 56.9948 59.6775 57.3202C57.8633 58.1335 55.7486 55.9163 54.762 54.286C55.4233 54.9296 56.2013 55.4247 57.0783 55.7607C57.2339 55.8314 57.3682 55.8703 57.4779 55.8986C57.5132 55.9092 57.5521 55.9198 57.5592 55.9198C57.6052 55.9375 57.6512 55.9516 57.7219 55.9728C58.8004 56.3159 60.0311 55.9198 60.558 54.8978ZM73.3205 28.8954C71.1775 27.297 68.6314 27.5835 65.8766 29.1182C59.9391 32.5237 54.1043 43.1891 58.1144 49.6252C58.1286 49.6535 58.1498 49.6782 58.1675 49.703C58.1781 49.7136 58.1851 49.7242 58.1957 49.7348C58.2346 49.7808 58.27 49.8303 58.316 49.8975C59.0798 50.9301 59.5325 52.1643 59.5325 53.1969C59.5183 54.1446 59.1965 54.82 58.2665 54.6503C58.217 54.6397 58.1639 54.6255 58.1215 54.6149C58.0331 54.5866 57.9341 54.5583 57.8492 54.5336C57.7643 54.5124 57.7183 54.4982 57.6724 54.4735C57.6512 54.4628 57.6052 54.4452 57.584 54.4381C54.6984 53.455 53.3475 49.6818 53.4394 46.4461C53.3086 39.2002 58.7474 29.3516 65.1799 25.3945C65.3956 25.2636 65.6078 25.1363 65.8129 25.0126C71.7716 21.4621 77.3024 23.7289 77.4721 31.2895L73.3205 28.8954Z" fill="black"/>
<path d="M77.4719 31.2923L73.3203 28.8983C71.1773 27.2999 68.6311 27.5863 65.8764 29.121C59.9389 32.5265 54.104 43.192 58.1142 49.628C58.1283 49.6563 58.1496 49.6811 58.1672 49.7058C58.1778 49.7164 58.1849 49.727 58.1955 49.7377C58.2344 49.7836 58.2698 49.8331 58.3158 49.9003C59.0796 50.9329 59.5322 52.1671 59.5322 53.1997C59.5181 54.1474 59.1963 54.8229 58.2662 54.6531C58.2167 54.6425 58.1637 54.6284 58.1213 54.6177C58.0329 54.5895 57.9338 54.5612 57.849 54.5364C57.7641 54.5152 57.7181 54.501 57.6722 54.4763C57.6509 54.4657 57.605 54.448 57.5837 54.4409C54.6981 53.4578 53.3473 49.6846 53.4392 46.4489C53.3084 39.203 58.7472 29.3544 65.1797 25.3973C65.3954 25.2665 65.6076 25.1392 65.8127 25.0154C71.7714 21.465 77.3021 23.7317 77.4719 31.2923Z" fill="white"/>
<path d="M59.6772 57.3193C57.863 58.1326 55.7483 55.9154 54.7617 54.2852C55.423 54.9288 56.201 55.4238 57.078 55.7598C57.2336 55.8305 57.368 55.8694 57.4776 55.8977C57.513 55.9083 57.5519 55.9189 57.5589 55.9189C57.6049 55.9366 57.6509 55.9507 57.7216 55.972C58.8002 56.315 60.0308 55.9189 60.5577 54.8969C60.6355 55.9154 60.3172 56.994 59.6772 57.3193Z" fill="#E8E8E8"/>
</svg>
