<svg width="90" height="137" viewBox="0 0 90 137" fill="none" xmlns="http://www.w3.org/2000/svg">
<path d="M54.0546 4.94742C44.2228 -0.728173 34.9853 -1.55016 28.0429 2.63448C28.0358 2.63448 10.7528 12.6157 10.7421 12.6193C10.6318 12.6833 10.4788 12.7723 10.3934 12.8292C-3.6123 21.3728 -1.37764 44.9897 4.9598 60.1341C4.95269 60.1305 33.4516 133.782 33.4516 133.792C33.5726 134.095 33.7114 134.383 33.8822 134.678C34.9141 136.351 36.4264 137.429 37.9138 136.778C37.9708 136.778 55.5135 126.611 55.5669 126.594C55.8266 126.462 56.0472 126.263 56.2252 126.007L84.7099 85.274C100.395 60.5113 77.2587 18.1134 54.0546 4.94742ZM37.4263 135.369C37.0136 135.902 35.8856 135.233 35.1098 133.963C34.5049 132.917 6.76389 60.675 6.3013 59.6644C0.248525 45.1356 -2.22809 22.2909 11.1585 14.0284C11.2154 13.9892 11.2795 13.9536 11.34 13.9181C11.3435 13.9181 11.3471 13.9181 11.3506 13.9181C20.1611 8.95414 30.5765 12.8256 38.5116 18.1134C54.5492 28.3935 70.8002 54.8357 70.8002 76.6912C70.8002 83.2777 69.3271 89.4515 65.9217 94.636C59.9614 103.155 43.1197 127.234 37.4263 135.372V135.369ZM83.5534 84.4449C83.3079 84.6833 55.1719 125.252 54.8659 125.355L40.2695 133.785L67.0782 95.458C82.6852 71.681 59.9401 28.8312 37.4833 15.7684C31.4234 12.0464 24.4169 9.50924 17.4675 10.381L28.6834 3.90838C35.1988 -0.0592 43.931 0.752107 53.3429 6.18217C75.846 18.8464 98.6551 60.4366 83.5534 84.4449Z" fill="black"/>
<path d="M38.5115 18.1084C30.5764 12.8206 20.161 8.94915 11.3505 13.9095C11.3505 13.9095 11.3434 13.9166 11.3399 13.9166C11.2794 13.9522 11.2153 13.9878 11.1584 14.0269C-2.22818 22.2895 0.248438 45.1342 6.30122 59.663C6.7638 60.6735 34.5048 132.915 35.1097 133.962C35.8855 135.232 37.0135 135.901 37.4262 135.367C43.1196 127.229 59.9614 103.15 65.9216 94.631C69.327 89.4465 70.8001 83.2727 70.8001 76.6862C70.8001 54.8307 54.5491 28.3885 38.5115 18.1084ZM56.8336 70.5551C56.8122 70.8469 56.7837 71.1316 56.7446 71.4091V71.4162C56.0863 76.5865 53.7271 80.4296 50.1047 82.2265C45.3472 84.4114 40.6715 83.2656 35.7075 80.5043C24.3919 73.9711 15.1829 58.0297 15.1829 44.9669C15.1829 38.8109 17.2183 34.0748 20.9119 31.6302C24.5912 28.9863 30.6191 29.5201 35.3731 32.1355C47.9732 38.8892 57.9046 56.222 56.8336 70.5551Z" fill="white"/>
<path d="M83.5535 84.4443C83.308 84.6827 55.172 125.252 54.8659 125.355L40.2695 133.785L67.0783 95.4575C82.6852 71.6805 59.9402 28.8306 37.4833 15.7679C31.4234 12.0458 24.417 9.50873 17.4675 10.3805L28.6835 3.90786C35.1989 -0.0597165 43.9311 0.75159 53.343 6.18166C75.8461 18.8459 98.6552 60.436 83.5535 84.4443Z" fill="#E8E8E8"/>
<path d="M35.3733 32.1385C30.6193 29.5231 24.5914 28.9894 20.9121 31.6332C17.2185 34.0778 15.1831 38.814 15.1831 44.97C15.1831 58.0327 24.3922 73.9742 35.7078 80.5074C40.6717 83.2687 45.3474 84.4145 50.1049 82.2296C53.7273 80.4326 56.0865 76.5896 56.7448 71.4193V71.4122C56.7839 71.1346 56.8124 70.85 56.8338 70.5582C57.9048 56.2251 47.9734 38.8923 35.3733 32.1385ZM49.4715 80.9557C45.9523 82.6993 41.3193 82.1051 36.4194 79.2762C25.4952 72.9708 16.6065 57.5808 16.6065 44.97C16.5104 34.3554 23.2357 28.6869 32.6049 32.4374C31.4057 47.3149 41.7961 65.3309 55.2574 71.7609C54.5778 76.1804 52.5353 79.4363 49.4715 80.9557ZM55.5029 69.0245L55.4994 69.0316C55.4887 69.3982 55.4745 69.8252 55.4318 70.27C42.8636 64.0072 33.0888 47.0552 33.9819 33.0388C34.6011 33.3306 35.0708 33.5797 35.7078 33.9426C46.8419 40.4153 55.841 56.1148 55.5029 69.0245Z" fill="black"/>
<path d="M55.2572 71.759C54.5775 76.1785 52.535 79.4344 49.4713 80.9538C45.9521 82.6974 41.3191 82.1031 36.4192 79.2742C25.495 72.9688 16.6062 57.5789 16.6062 44.968C16.5102 34.3534 23.2355 28.6849 32.6046 32.4355C31.4055 47.313 41.7959 65.329 55.2572 71.759Z" fill="#E8E8E8"/>
</svg>
