<svg width="126" height="136" viewBox="0 0 126 136" fill="none" xmlns="http://www.w3.org/2000/svg">
<path d="M118.487 54.5561L57.1254 19.1295C56.1848 18.5885 55.2441 18.5178 54.452 18.9456C54.4449 18.9563 4.40278 47.8301 4.39571 47.8513C3.49042 48.3676 2.97412 49.4851 2.97412 50.9421V93.0063C2.97412 95.5347 4.47705 98.3815 6.39372 99.4883L67.7555 134.911C68.6785 135.442 69.6404 135.566 70.5209 135.046L120.436 106.225C121.373 105.726 121.91 104.584 121.91 103.099V61.0346C121.91 58.5097 120.407 55.6665 118.487 54.5561ZM70.4608 132.312C70.4113 132.885 70.2663 133.532 69.7535 133.858H69.7465C69.3044 134.098 68.7528 133.858 68.4628 133.688L7.10098 98.2612C5.62988 97.4125 4.38864 95.0078 4.38864 93.0063V50.9421C4.37803 49.4073 5.13126 48.4702 6.39372 49.234L67.7555 84.6606C69.2302 85.5093 70.4749 87.9176 70.4749 89.9156C70.284 90.4849 70.6305 131.697 70.4608 132.312ZM120.496 103.099C120.496 104.032 120.224 104.736 119.746 104.991L71.8506 132.645C71.8682 132.429 71.8895 132.21 71.8895 131.98V89.9156C71.8895 87.3907 70.383 84.5439 68.4628 83.4371C68.3885 83.384 7.0939 48.0105 7.01964 47.9645L55.1416 20.1798C55.5801 19.9429 56.1317 20.1869 56.4182 20.3531L117.78 55.7797C119.251 56.632 120.496 59.0366 120.496 61.0346V103.099Z" fill="black"/>
<path d="M70.4748 89.9138C70.4748 87.9158 69.2301 85.5076 67.7554 84.6589L6.39362 49.2323C5.13116 48.4685 4.37793 49.4056 4.38854 50.9403V93.0046C4.38854 95.0061 5.62978 97.4108 7.10088 98.2595L68.4627 133.686C68.7527 133.852 69.3043 134.096 69.7464 133.859H69.7534C70.2662 133.531 70.4112 132.883 70.4607 132.31C70.6304 131.695 70.2839 90.4832 70.4748 89.9138ZM49.5435 99.5856C49.5965 100.756 48.5144 101.506 47.542 100.912L20.362 85.2212C19.6229 84.7933 19.0642 83.7571 19.0642 82.8059V75.4256C19.0253 74.2587 20.0614 73.5054 21.0692 74.0995L48.2492 89.7936C48.9883 90.218 49.5435 91.2576 49.5435 92.2054V99.5856Z" fill="white"/>
<path d="M120.495 61.0353V103.1C120.495 104.033 120.223 104.737 119.746 104.991L71.8502 132.645C71.8679 132.43 71.8891 132.21 71.8891 131.98V89.9163C71.8891 87.3913 70.3826 84.5446 68.4624 83.4378C68.3882 83.3847 7.09355 48.0112 7.01929 47.9652L55.1412 20.1805C55.5797 19.9436 56.1314 20.1876 56.4178 20.3538L117.78 55.7804C119.251 56.6326 120.495 59.0373 120.495 61.0353Z" fill="#E8E8E8"/>
<path d="M48.2491 89.7964L21.0691 74.1024C20.0613 73.5083 19.0252 74.2615 19.0641 75.4285V82.8087C19.0641 83.76 19.6228 84.7961 20.3619 85.224L47.5418 100.915C48.5143 101.509 49.5964 100.759 49.5434 99.5884V92.2082C49.5434 91.2605 48.9882 90.2208 48.2491 89.7964ZM48.1289 99.6203L21.0691 83.9969C20.7968 83.8413 20.4786 83.2861 20.4786 82.8087C20.4963 82.7769 20.468 75.4249 20.4821 75.3966L47.5418 91.02C47.8141 91.1791 48.1289 91.7308 48.1289 92.2082V99.6203Z" fill="black"/>
<path d="M48.1289 92.2061V99.6182L21.0692 83.9948C20.7969 83.8392 20.4786 83.284 20.4786 82.8066C20.4963 82.7748 20.468 75.4228 20.4821 75.3945L47.5419 91.0179C47.8142 91.177 48.1289 91.7287 48.1289 92.2061Z" fill="#E8E8E8"/>
<path d="M124.623 40.077C124.004 39.0338 123.194 38.1533 122.303 37.637L57.9422 0.4811C56.9803 -0.0705622 56.0185 -0.151897 55.2263 0.258313C55.1804 0.279531 55.1379 0.304283 55.0955 0.332573L1.51353 30.9817C0.544589 31.5121 0.0035363 32.6897 0 34.2209V50.067C0 52.7051 1.57365 55.6791 3.5752 56.832L67.9358 93.9914C68.8906 94.5395 69.8878 94.6703 70.8002 94.1364L124.347 63.505C125.319 62.9851 125.878 61.8005 125.878 60.2516V44.4054C125.878 42.9414 125.394 41.3784 124.623 40.077ZM55.8346 1.53845C55.8346 1.53845 55.8381 1.53491 55.8416 1.53491C56.2943 1.27676 56.8495 1.48541 57.235 1.70819L121.596 38.8605C122.098 39.154 122.579 39.6208 122.996 40.1866L70.6658 70.3017C70.0965 69.4636 69.3998 68.767 68.643 68.332C68.5122 68.2578 4.27538 31.162 4.15515 31.1019L55.8346 1.53845ZM70.8037 90.9466C70.7896 91.6645 70.6835 92.5344 70.0257 92.9482H70.0187C69.566 93.1922 69.0214 92.9871 68.643 92.7678L4.28245 55.6084C2.73002 54.7137 1.41452 52.1747 1.41452 50.067V34.2209C1.41805 33.2307 1.70096 32.4916 2.19958 32.2194C2.19958 32.2194 2.20311 32.2158 2.20665 32.2158C2.68051 31.9577 3.26754 32.2194 3.5752 32.3962L67.9358 69.5556C69.4918 70.4538 70.8037 72.9929 70.8037 75.0969V90.9466ZM124.463 60.2516C124.463 61.2453 124.17 61.995 123.664 62.2673L72.1687 91.7211C72.197 91.4629 72.2218 91.2118 72.2182 90.9466V75.0969C72.2182 73.9123 71.9 72.6569 71.366 71.5324L123.721 41.4031C124.177 42.3579 124.463 43.4259 124.463 44.4054V60.2516Z" fill="black"/>
<path d="M70.8038 75.0949V90.9446C70.7896 91.6624 70.6835 92.5324 70.0258 92.9461H70.0187C69.566 93.1901 69.0215 92.985 68.6431 92.7658L4.28249 55.6064C2.73005 54.7117 1.41455 52.1726 1.41455 50.065V34.2189C1.41809 33.2287 1.70099 32.4896 2.19961 32.2173C2.19961 32.2173 2.20315 32.2138 2.20668 32.2138C2.68055 31.9556 3.26757 32.2173 3.57523 32.3941L67.9358 69.5535C69.4918 70.4517 70.8038 72.9908 70.8038 75.0949Z" fill="white"/>
<path d="M124.463 44.4047V60.2508C124.463 61.2445 124.17 61.9942 123.664 62.2665L72.1685 91.7203C72.1968 91.4621 72.2215 91.2111 72.218 90.9458V75.0962C72.218 73.9115 71.8997 72.6561 71.3657 71.5316L123.721 41.4023C124.177 42.3571 124.463 43.4251 124.463 44.4047Z" fill="#E8E8E8"/>
<path d="M122.996 40.1851L70.6657 70.3002C70.0963 69.4621 69.3997 68.7655 68.6429 68.3305C68.5121 68.2562 4.27526 31.1605 4.15503 31.1004L55.8345 1.53693C55.8345 1.53693 55.838 1.5334 55.8415 1.5334C56.2942 1.27525 56.8494 1.48389 57.2348 1.70668L121.595 38.859C122.098 39.1525 122.579 39.6193 122.996 40.1851Z" fill="#E8E8E8"/>
</svg>
