<svg width="92" height="137" viewBox="0 0 92 137" fill="none" xmlns="http://www.w3.org/2000/svg">
<path d="M72.7062 63.0228L37.2266 42.537C32.6365 39.8989 28.1878 39.5312 24.6126 41.5787L6.71896 51.7774C6.71896 51.7774 6.70836 51.7844 6.70482 51.7844C6.70128 51.7844 6.70128 51.7844 6.70128 51.788C6.68006 51.7986 6.65531 51.8092 6.63409 51.8233C2.41882 54.2669 0 59.8543 0 67.1532V91.8153C0 94.3119 1.48878 97.1268 3.39131 98.2266L69.2548 136.252C70.1601 136.769 71.0902 136.9 71.9566 136.404L89.5673 126.241C90.6247 125.82 91.2541 124.629 91.2541 123.037V98.4034C91.2541 84.7993 82.9332 68.9319 72.7062 63.0228ZM71.9353 133.346C71.9353 133.459 71.9318 133.568 71.9247 133.671C71.8151 134.983 71.1255 135.743 69.9621 135.029L4.09857 97.0031C2.64515 96.1614 1.41452 93.785 1.41452 91.8153V67.1532C1.41805 60.3458 3.5858 55.204 7.38732 53.0221C7.39086 53.0221 7.39793 53.0186 7.40147 53.0151C10.3614 51.307 14.0285 51.8057 17.0131 53.199C17.5436 53.4536 18.0599 53.7082 18.5726 54.0088L54.0806 74.5051C63.9256 80.1915 71.9353 95.5213 71.9353 108.687V133.346ZM89.8396 123.037C89.8396 124.024 89.5249 124.752 89.0192 124.936C88.9096 124.965 73.4241 133.936 73.3145 133.989C73.3322 133.781 73.3498 133.568 73.3498 133.346V108.687C73.3498 95.0722 65.0219 79.1907 54.7878 73.2816L19.2516 52.764C16.9813 51.4662 14.4422 50.5467 11.8112 50.5008L25.3305 42.7987C25.38 42.7704 25.4401 42.7386 25.4861 42.7103C28.5379 41.0447 32.4561 41.416 36.5193 43.7641L71.999 64.2499C81.837 69.9292 89.8396 85.2519 89.8396 98.4034V123.037Z" fill="black"/>
<path d="M89.8399 98.4023V123.036C89.8399 124.023 89.5252 124.751 89.0195 124.935C88.9099 124.963 73.4244 133.935 73.3148 133.988C73.3325 133.779 73.3501 133.567 73.3501 133.344V108.686C73.3501 95.0712 65.0222 79.1897 54.7881 73.2805L19.2519 52.7629C16.9816 51.4651 14.4425 50.5457 11.8115 50.4997L25.3308 42.7976C25.3803 42.7693 25.4404 42.7375 25.4864 42.7092C28.5382 41.0436 32.4564 41.4149 36.5196 43.763L71.9993 64.2488C81.8373 69.9281 89.8399 85.2509 89.8399 98.4023Z" fill="#E8E8E8"/>
<path d="M71.9354 108.687V133.345C71.9354 133.458 71.9318 133.568 71.9248 133.67C71.8151 134.982 71.1256 135.743 69.9621 135.028L4.0986 97.0026C2.64518 96.161 1.41455 93.7846 1.41455 91.8148V67.1527C1.41809 60.3454 3.58584 55.2036 7.38735 53.0217C7.39089 53.0217 7.39797 53.0181 7.4015 53.0146C10.3614 51.3066 14.0285 51.8052 17.0132 53.1985C17.5436 53.4531 18.0599 53.7077 18.5727 54.0083L54.0806 74.5047C63.9257 80.191 71.9354 95.5209 71.9354 108.687Z" fill="white"/>
<path d="M54.8235 2.70908C49.4554 -0.388713 44.3844 -0.844893 40.551 1.41834L22.8377 11.6418C19.0008 13.8555 16.8932 18.4597 16.8896 24.6058C16.8896 36.9793 25.6102 52.0793 36.3251 58.2643C39.4441 60.0643 42.4606 60.9731 45.1977 60.9731C47.1922 60.9731 49.0417 60.4886 50.6648 59.5126C50.679 59.5126 68.219 49.3776 68.2261 49.3776C72.116 47.1851 74.2554 42.5667 74.2554 36.364C74.2554 23.9905 65.5385 8.89406 54.8235 2.70908ZM37.0324 57.0372C26.7064 51.0785 18.3042 36.5302 18.3042 24.6058C18.3042 18.9902 20.1643 14.8244 23.5379 12.8724C24.9559 12.0484 26.5437 11.709 28.1492 11.709C29.7547 11.709 31.5052 12.0767 33.0505 12.6602C45.4523 17.6075 54.873 33.5385 55.0463 46.637C55.1665 57.5535 47.4998 63.1515 37.0324 57.0372ZM67.5259 48.147L54.2895 55.7889C62.6387 40.6253 45.3392 10.6481 28.0184 10.2838L41.2618 2.63836C44.646 0.643887 49.2114 1.1036 54.1162 3.93264C64.4422 9.89484 72.8409 24.4432 72.8409 36.364C72.8409 42.0327 70.9561 46.2161 67.5259 48.147Z" fill="black"/>
<path d="M72.8411 36.3611C72.8411 42.0298 70.9563 46.2132 67.5261 48.1441L54.2897 55.786C62.6389 40.6224 45.3393 10.6452 28.0186 10.2809L41.262 2.63547C44.6462 0.640997 49.2116 1.10071 54.1164 3.92975C64.4424 9.89195 72.8411 24.4403 72.8411 36.3611Z" fill="#E8E8E8"/>
<path d="M55.0463 46.6311C55.1665 57.5477 47.4999 63.1456 37.0324 57.0314C26.7064 51.0727 18.3042 36.5244 18.3042 24.6C18.3042 18.9844 20.1643 14.8186 23.5379 12.8666C24.956 12.0426 26.5438 11.7031 28.1493 11.7031C29.7547 11.7031 31.5052 12.0709 33.0506 12.6544C45.4523 17.6017 54.873 33.5327 55.0463 46.6311Z" fill="white"/>
</svg>
